# xmcd
#
# Track frame offsets:
#	150
#	13428
#	26090
#	42588
#	57015
#	77375
#	92665
#	108018
#	142508
#	156360
#
# Disc length: 2370 seconds
#
# Revision: 1
# Processed by: cddbd v1.4PL0 Copyright (c) Steve Scherf et al.
# Submitted via: audiograbber 1.82.02
#
DISCID=7109400a
DTITLE=Flavium - Backdoor Man
DYEAR=1995
DGENRE=Blues
TTITLE0=Backdoor man
TTITLE1=High heel boogie
TTITLE2=Striking on you
TTITLE3=Honey bee
TTITLE4=Blue dress
TTITLE5=Jump a little
TTITLE6=You're gonna miss me
TTITLE7=Why i sing the blues
TTITLE8=Choking floor
TTITLE9=Long distance call
EXTD=
EXTT0=
EXTT1=
EXTT2=
EXTT3=
EXTT4=
EXTT5=
EXTT6=
EXTT7=
EXTT8=
EXTT9=
PLAYORDER=
